<svg width="180" height="180" viewBox="0 0 180 180" fill="none" xmlns="http://www.w3.org/2000/svg">
<rect x="1" y="1" width="178" height="178" rx="29" fill="#141414" stroke="#E8E3D5" stroke-width="2"/>
<path d="M106.467 100.055C103.606 99.8937 100.787 98.7917 98.8735 96.6238C96.2127 93.7289 95.2709 89.0247 96.8845 85.3732C98.8965 80.6525 103.78 78.6459 108.716 78.9913C112.395 78.9913 120.742 78.9913 125.02 78.9913C126.42 78.9715 127.645 79.0571 128.893 78.8992C131.767 78.5965 134.78 76.705 136.318 74.1851C139.242 69.7572 138.136 63.2832 133.71 60.2568C131.948 58.9738 129.831 58.3915 127.661 58.227C126.578 58.1185 125.488 57.9968 124.46 57.6843C121.21 56.7138 118.628 54.2071 117.558 51.0096C116.972 49.345 116.995 47.539 116.695 45.8152C116.004 41.6637 112.793 38.4793 108.621 37.5352C107.669 37.3115 106.767 37.147 105.884 37.1404C95.7715 37.1075 77.9837 37.0121 74.1769 37.0023C69.1222 36.897 64.2946 40.4761 63.4088 45.5356C62.3781 50.4405 65.3451 55.6842 70.031 57.3323C71.6874 57.9507 73.0375 58.0856 74.8421 58.0659C80.3678 58.1185 81.516 58.2501 84.5423 58.2797C88.4346 58.1547 92.6661 60.0495 94.5465 63.5234C98.6528 71.106 92.811 79.1821 84.4435 78.886C74.0936 78.909 68.1244 78.8728 55.7031 78.8827C53.566 78.8992 51.9194 78.761 49.8942 79.3038C44.0689 80.6723 40.5289 87.3963 42.699 92.9953C44.003 96.6863 47.4574 99.3509 51.3563 99.8279C56.2234 100.144 66.9247 99.8641 79.2142 99.9529C82.0429 99.9529 84.1142 99.9529 84.9374 99.9529C85.7311 99.9463 86.4753 100.038 87.3315 100.209C92.5542 101.088 96.1205 106.174 95.8209 111.328C95.8209 114.806 95.8209 125.454 95.8209 130.76C95.811 132.672 96.1534 134.639 97.1413 136.498C99.97 142.008 107.597 143.764 112.572 139.994C116.333 137.234 117.146 133.218 116.932 128.866C116.926 124.441 116.939 116.888 116.932 111.99C117.357 105.486 113.185 100.325 106.536 100.068L106.47 100.061L106.467 100.055Z" fill="#E8E3D5"/>
</svg>
